<mxfile host="www.draw.io" modified="2020-01-05T14:27:01.288Z" agent="Mozilla/5.0 (Windows NT 10.0; Win64; x64) AppleWebKit/537.36 (KHTML, like Gecko) Chrome/79.0.3945.88 Safari/537.36" etag="SxlYSKTBEKGrWjN0h9UK" version="12.4.8" type="github">
  <diagram id="QwdOzoOgIp-lFg_ZPf8S" name="Page-1">
    <mxGraphModel dx="782" dy="427" grid="1" gridSize="10" guides="1" tooltips="1" connect="1" arrows="1" fold="1" page="1" pageScale="1" pageWidth="850" pageHeight="1100" math="0" shadow="0">
      <root>
        <mxCell id="0"/>
        <mxCell id="1" parent="0"/>
        <mxCell id="e8jK4cotqSa0LGnbvVJa-6" style="edgeStyle=orthogonalEdgeStyle;rounded=0;orthogonalLoop=1;jettySize=auto;html=1;exitX=1;exitY=0.5;exitDx=0;exitDy=0;entryX=0;entryY=0.5;entryDx=0;entryDy=0;" edge="1" parent="1" source="e8jK4cotqSa0LGnbvVJa-1" target="e8jK4cotqSa0LGnbvVJa-2">
          <mxGeometry relative="1" as="geometry"/>
        </mxCell>
        <mxCell id="e8jK4cotqSa0LGnbvVJa-1" value="需要理解的内容" style="rounded=1;whiteSpace=wrap;html=1;" vertex="1" parent="1">
          <mxGeometry x="310" y="60" width="120" height="60" as="geometry"/>
        </mxCell>
        <mxCell id="e8jK4cotqSa0LGnbvVJa-16" style="edgeStyle=orthogonalEdgeStyle;rounded=0;orthogonalLoop=1;jettySize=auto;html=1;exitX=1;exitY=0.5;exitDx=0;exitDy=0;entryX=0;entryY=0.5;entryDx=0;entryDy=0;" edge="1" parent="1" source="e8jK4cotqSa0LGnbvVJa-2" target="e8jK4cotqSa0LGnbvVJa-15">
          <mxGeometry relative="1" as="geometry"/>
        </mxCell>
        <mxCell id="e8jK4cotqSa0LGnbvVJa-2" value="看视频" style="rounded=1;whiteSpace=wrap;html=1;" vertex="1" parent="1">
          <mxGeometry x="480" y="60" width="120" height="60" as="geometry"/>
        </mxCell>
        <mxCell id="e8jK4cotqSa0LGnbvVJa-7" style="edgeStyle=orthogonalEdgeStyle;rounded=0;orthogonalLoop=1;jettySize=auto;html=1;exitX=1;exitY=0.5;exitDx=0;exitDy=0;entryX=0;entryY=0.5;entryDx=0;entryDy=0;" edge="1" parent="1" source="e8jK4cotqSa0LGnbvVJa-3" target="e8jK4cotqSa0LGnbvVJa-4">
          <mxGeometry relative="1" as="geometry"/>
        </mxCell>
        <mxCell id="e8jK4cotqSa0LGnbvVJa-3" value="需要记忆的内容" style="rounded=1;whiteSpace=wrap;html=1;" vertex="1" parent="1">
          <mxGeometry x="310" y="250" width="120" height="60" as="geometry"/>
        </mxCell>
        <mxCell id="e8jK4cotqSa0LGnbvVJa-8" style="edgeStyle=orthogonalEdgeStyle;rounded=0;orthogonalLoop=1;jettySize=auto;html=1;exitX=1;exitY=0.5;exitDx=0;exitDy=0;entryX=0;entryY=0.5;entryDx=0;entryDy=0;" edge="1" parent="1" source="e8jK4cotqSa0LGnbvVJa-4" target="e8jK4cotqSa0LGnbvVJa-5">
          <mxGeometry relative="1" as="geometry"/>
        </mxCell>
        <mxCell id="e8jK4cotqSa0LGnbvVJa-4" value="看讲义" style="rounded=1;whiteSpace=wrap;html=1;" vertex="1" parent="1">
          <mxGeometry x="480" y="250" width="120" height="60" as="geometry"/>
        </mxCell>
        <mxCell id="e8jK4cotqSa0LGnbvVJa-10" style="edgeStyle=orthogonalEdgeStyle;rounded=0;orthogonalLoop=1;jettySize=auto;html=1;exitX=0.5;exitY=1;exitDx=0;exitDy=0;entryX=1;entryY=0.5;entryDx=0;entryDy=0;" edge="1" parent="1" source="e8jK4cotqSa0LGnbvVJa-5" target="e8jK4cotqSa0LGnbvVJa-9">
          <mxGeometry relative="1" as="geometry"/>
        </mxCell>
        <mxCell id="e8jK4cotqSa0LGnbvVJa-5" value="刷题" style="rounded=1;whiteSpace=wrap;html=1;" vertex="1" parent="1">
          <mxGeometry x="650" y="250" width="120" height="60" as="geometry"/>
        </mxCell>
        <mxCell id="e8jK4cotqSa0LGnbvVJa-11" style="edgeStyle=orthogonalEdgeStyle;rounded=0;orthogonalLoop=1;jettySize=auto;html=1;exitX=0.5;exitY=0;exitDx=0;exitDy=0;entryX=0.5;entryY=1;entryDx=0;entryDy=0;" edge="1" parent="1" source="e8jK4cotqSa0LGnbvVJa-9" target="e8jK4cotqSa0LGnbvVJa-4">
          <mxGeometry relative="1" as="geometry"/>
        </mxCell>
        <mxCell id="e8jK4cotqSa0LGnbvVJa-9" value="看书" style="rounded=1;whiteSpace=wrap;html=1;" vertex="1" parent="1">
          <mxGeometry x="480" y="360" width="120" height="60" as="geometry"/>
        </mxCell>
        <mxCell id="e8jK4cotqSa0LGnbvVJa-13" style="edgeStyle=orthogonalEdgeStyle;rounded=0;orthogonalLoop=1;jettySize=auto;html=1;exitX=1;exitY=0.5;exitDx=0;exitDy=0;entryX=0;entryY=0.5;entryDx=0;entryDy=0;" edge="1" parent="1" source="e8jK4cotqSa0LGnbvVJa-12" target="e8jK4cotqSa0LGnbvVJa-1">
          <mxGeometry relative="1" as="geometry"/>
        </mxCell>
        <mxCell id="e8jK4cotqSa0LGnbvVJa-14" style="edgeStyle=orthogonalEdgeStyle;rounded=0;orthogonalLoop=1;jettySize=auto;html=1;exitX=1;exitY=0.5;exitDx=0;exitDy=0;entryX=0;entryY=0.5;entryDx=0;entryDy=0;" edge="1" parent="1" source="e8jK4cotqSa0LGnbvVJa-12" target="e8jK4cotqSa0LGnbvVJa-3">
          <mxGeometry relative="1" as="geometry"/>
        </mxCell>
        <mxCell id="e8jK4cotqSa0LGnbvVJa-12" value="大致看下课本内容" style="rounded=1;whiteSpace=wrap;html=1;" vertex="1" parent="1">
          <mxGeometry x="60" y="190" width="120" height="60" as="geometry"/>
        </mxCell>
        <mxCell id="e8jK4cotqSa0LGnbvVJa-18" style="edgeStyle=orthogonalEdgeStyle;rounded=0;orthogonalLoop=1;jettySize=auto;html=1;exitX=0.5;exitY=1;exitDx=0;exitDy=0;entryX=1;entryY=0.5;entryDx=0;entryDy=0;" edge="1" parent="1" source="e8jK4cotqSa0LGnbvVJa-15" target="e8jK4cotqSa0LGnbvVJa-17">
          <mxGeometry relative="1" as="geometry"/>
        </mxCell>
        <mxCell id="e8jK4cotqSa0LGnbvVJa-15" value="刷题" style="rounded=1;whiteSpace=wrap;html=1;" vertex="1" parent="1">
          <mxGeometry x="650" y="60" width="120" height="60" as="geometry"/>
        </mxCell>
        <mxCell id="e8jK4cotqSa0LGnbvVJa-19" style="edgeStyle=orthogonalEdgeStyle;rounded=0;orthogonalLoop=1;jettySize=auto;html=1;exitX=0.5;exitY=0;exitDx=0;exitDy=0;entryX=0.5;entryY=1;entryDx=0;entryDy=0;" edge="1" parent="1" source="e8jK4cotqSa0LGnbvVJa-17" target="e8jK4cotqSa0LGnbvVJa-2">
          <mxGeometry relative="1" as="geometry"/>
        </mxCell>
        <mxCell id="e8jK4cotqSa0LGnbvVJa-17" value="看书" style="rounded=1;whiteSpace=wrap;html=1;" vertex="1" parent="1">
          <mxGeometry x="480" y="160" width="120" height="60" as="geometry"/>
        </mxCell>
      </root>
    </mxGraphModel>
  </diagram>
</mxfile>
